HIERARCHY
ROOT root     
{
	OFFSET 0.0000 0.0000 0.0000
	CHANNELS 6 Xposition Yposition Zposition Zrotation Yrotation Xrotation
	JOINT pelvis   
	{
		OFFSET 0.0000 0.0000 0.0000
		CHANNELS 3 Zrotation Yrotation Xrotation
		JOINT thorax   
		{
			OFFSET 0.0000 23.0750 -5.0000
			CHANNELS 3 Zrotation Yrotation Xrotation
			JOINT rclavicle
			{
				OFFSET 0.0000 28.0009 0.0000
				CHANNELS 3 Zrotation Yrotation Xrotation
				JOINT rhumerus 
				{
					OFFSET -18.5725 5.5939 0.0000
					CHANNELS 3 Zrotation Yrotation Xrotation
					JOINT rradius  
					{
						OFFSET -24.8459 0.0000 0.0000
						CHANNELS 3 Zrotation Yrotation Xrotation
						JOINT rhand    
						{
							OFFSET -24.5477 0.0000 0.0000
							CHANNELS 3 Zrotation Yrotation Xrotation
							End Site
							{
								OFFSET -8.1826 0.0000 0.0000
							}
						}
					}
				}
			}
			JOINT lclavicle
			{
				OFFSET 0.0000 28.0009 0.0000
				CHANNELS 3 Zrotation Yrotation Xrotation
				JOINT lhumerus 
				{
					OFFSET 18.5725 5.5939 0.0000
					CHANNELS 3 Zrotation Yrotation Xrotation
					JOINT lradius  
					{
						OFFSET 24.8459 0.0000 0.0000
						CHANNELS 3 Zrotation Yrotation Xrotation
						JOINT lhand    
						{
							OFFSET 24.5477 0.0000 0.0000
							CHANNELS 3 Zrotation Yrotation Xrotation
							End Site
							{
								OFFSET 8.1826 0.0000 0.0000
							}
						}
					}
				}
			}
			JOINT head     
			{
				OFFSET 0.0000 35.2030 0.0000
				CHANNELS 3 Zrotation Yrotation Xrotation
				End Site
				{
					OFFSET 0.0000 11.7343 0.0000
				}
			}
		}
		JOINT rfemur   
		{
			OFFSET -8.2817 0.0000 0.0000
			CHANNELS 3 Zrotation Yrotation Xrotation
			JOINT rtibia   
			{
				OFFSET 0.0000 -43.3627 0.0000
				CHANNELS 3 Zrotation Yrotation Xrotation
				JOINT rfoot    
				{
					OFFSET 0.0000 -38.2947 0.0000
					CHANNELS 3 Zrotation Yrotation Xrotation
					JOINT rtoes    
					{
						OFFSET 0.0000 0.0000 16.6054
						CHANNELS 3 Zrotation Yrotation Xrotation
						End Site
						{
							OFFSET 0.0000 0.0000 5.5351
						}
					}
				}
			}
		}
		JOINT lfemur   
		{
			OFFSET 8.2817 0.0000 0.0000
			CHANNELS 3 Zrotation Yrotation Xrotation
			JOINT ltibia   
			{
				OFFSET 0.0000 -43.3627 0.0000
				CHANNELS 3 Zrotation Yrotation Xrotation
				JOINT lfoot    
				{
					OFFSET 0.0000 -38.2947 0.0000
					CHANNELS 3 Zrotation Yrotation Xrotation
					JOINT ltoes    
					{
						OFFSET 0.0000 0.0000 16.6054
						CHANNELS 3 Zrotation Yrotation Xrotation
						End Site
						{
							OFFSET 0.0000 0.0000 5.5351
						}
					}
				}
			}
		}
	}
}
MOTION
Frames: 14
Frame Time: .0333333
62.619 85.372 6.042 33.2252 -81.7478 -8.4205 0 -0 0 -1.19909 -6.84116 -3.74106 16.6128 -4.6093 9.18497e-06 58.8205 19.9794 -15.7985 -0 41.9684 -0 -21.491 13.1286 -2.50201 -19.547 4.59323 -1.61103e-05 -47.1959 -22.9884 -5.87566 0 -39.833 0 26.6042 -5.35019 -1.26579 -5.1926 -12.0272 -7.00429 -1.71363 -15.0521 -25.3965 -0 -0 38.9869 6.80622e-06 -6.97628 6.82269 -0.832807 1.81777e-06 -86.7208 -1.30828 3.95558 -27.9574 -0 -0 37.6427 5.24832e-06 11.2972 7.1743 1.4292 -5.07182e-06 -74.81 
61.272 87.052 5.9378 31.3166 -81.6784 -7.72892 0 -0 0 -1.22204 -6.77587 -3.75723 16.4061 -4.75155 3.0893e-05 58.0581 20.0759 -15.3621 -0 43.6238 -0 -21.408 13.1473 -2.49575 -19.2007 4.77125 1.28713e-05 -46.9317 -23.1621 -5.67912 0 -42.393 0 26.6587 -5.35361 -1.26931 -5.41242 -11.8666 -4.21192 -1.84821 -15.7517 -22.4169 -0 -0 35.4874 -2.16948e-05 -5.81305 13.2533 -1.337 1.56876e-07 -88.9071 -0.722476 4.30099 -25.217 -0 -0 34.6189 5.54145e-06 10.4933 13.1228 2.40794 4.38244e-05 -76.2635 
60.012 88.729 5.8276 29.6503 -81.657 -7.05255 0 -0 0 -1.26119 -6.71365 -3.86513 16.2646 -4.90039 1.05091e-05 57.184 20.2046 -14.9799 -0 45.3741 -0 -21.3772 13.1672 -2.49591 -18.8349 5.00493 -3.71849e-05 -46.6468 -23.3101 -5.58194 0 -45.1176 0 26.6496 -5.28658 -1.253 -5.45988 -11.6023 -1.76473 -1.98009 -16.3539 -19.8849 -0 -0 32.1634 6.42343e-06 -4.535 19.4909 -1.51599 1.02617e-06 -89.7737 -0.146389 4.47411 -22.9115 -0 -0 31.8122 -5.52407e-05 9.85915 18.8172 3.20848 2.90914e-05 -76.1994 
58.848 90.384 5.7142 28.2992 -81.6744 -6.44956 0 -0 0 -1.32289 -6.64866 -4.0709 16.1716 -5.04429 2.93033e-05 56.2145 20.3525 -14.6812 -3.56416e-07 47.2503 -8.14835e-07 -21.4099 13.1745 -2.50116 -18.4473 5.26631 -1.5251e-05 -46.3271 -23.4027 -5.61785 0 -48.0316 0 26.5803 -5.11762 -1.20964 -5.34761 -11.2692 0.303418 -2.09864 -16.8481 -17.8472 -0 -0 29.1004 8.51439e-06 -3.14821 25.2046 -1.34179 -6.56231e-06 -89.558 0.38318 4.46426 -21.0635 -0 -0 29.2817 -4.9768e-05 9.4433 23.979 3.86703 2.33068e-05 -74.8363 
57.787 92.001 5.5991 27.2907 -81.7414 -5.94891 0 -0 0 -1.40224 -6.58011 -4.37152 16.1148 -5.19117 2.49422e-05 55.1604 20.5373 -14.4799 -3.85431e-07 49.2541 -8.40806e-07 -21.5175 13.1619 -2.51167 -18.0547 5.55843 -2.70536e-05 -45.9573 -23.4586 -5.79679 0 -51.1228 0 26.4612 -4.8282 -1.13581 -5.09877 -10.8984 1.97235 -2.18792 -17.2269 -16.3338 -0 -0 26.3931 6.5814e-06 -1.6964 30.0879 -0.850704 -3.39604e-06 -88.3853 0.844614 4.27382 -19.6886 -0 -0 27.0906 -8.33517e-05 9.28573 28.3679 4.44196 1.43514e-05 -72.4457 
56.828 93.568 5.4843 26.6075 -81.844 -5.54447 0 -0 0 -1.48821 -6.50899 -4.74958 16.0796 -5.33729 1.25194e-05 54.0321 20.7628 -14.4032 -0 51.3862 -0 -21.697 13.1286 -2.52659 -17.6724 5.86522 -1.27805e-05 -45.5179 -23.4787 -6.1413 0 -54.3877 0 26.3134 -4.41508 -1.03251 -4.74627 -10.5183 3.24105 -2.23271 -17.4954 -15.3521 -0 -0 24.1088 -8.61163e-07 -0.2655 33.9304 -0.148198 5.38237e-07 -86.6405 1.22908 3.92077 -18.7808 -0 -0 25.2924 4.95654e-05 9.40923 31.8256 4.99425 4.73825e-05 -69.4468 
55.963 95.077 5.3716 26.1957 -81.9837 -5.21308 0 -0 0 -1.56853 -6.43718 -5.17365 16.0519 -5.47574 2.12876e-05 52.8377 21.0314 -14.4785 -0 53.6403 -0 -21.9415 13.0745 -2.54518 -17.3185 6.16629 -8.29527e-06 -44.9925 -23.4583 -6.67452 0 -57.8073 0 26.161 -3.894 -0.905102 -4.32635 -10.151 4.12507 -2.22757 -17.6577 -14.8649 -0 -0 22.2733 -5.5351e-06 1.0211 36.6551 0.609602 8.43623e-07 -84.8959 1.53953 3.42333 -18.3033 -0 -0 23.9011 -1.79226e-05 9.82314 34.3061 5.57367 4.64084e-05 -66.4179 
55.184 96.52 5.2625 25.988 -82.1527 -4.92875 0 -0 0 -1.62876 -6.36874 -5.60738 16.0211 -5.60753 -6.77306e-06 51.5823 21.3575 -14.7276 -0 55.9946 -0 -22.2408 13.0078 -2.56744 -17.0085 6.45588 3.54888e-06 -44.3692 -23.4173 -7.40258 4.54115e-07 -61.3453 -7.65657e-07 26.0356 -3.3007 -0.763304 -3.87469 -9.81245 4.65142 -2.16944 -17.7266 -14.8238 -0 -0 20.885 2.47415e-06 2.05393 38.265 1.27231 -2.62185e-06 -83.3331 1.7856 2.82242 -18.2142 -0 -0 22.9278 1.49417e-05 10.4724 35.8054 6.17185 -3.8159e-07 -63.5348 
54.479 97.894 5.159 25.9527 -82.3384 -4.6978 0 -0 0 -1.66078 -6.30676 -6.00944 15.9736 -5.72662 6.27874e-06 50.2761 21.7422 -15.1743 -0 58.4235 -0 -22.5788 12.937 -2.59312 -16.7486 6.71973 3.39839e-05 -43.6472 -23.3576 -8.33625 0 -64.959 0 25.9651 -2.68489 -0.619089 -3.4233 -9.51127 4.86028 -2.06559 -17.722 -15.1508 -0 -0 19.9022 -1.54328e-05 2.74818 38.8634 1.72523 1.29456e-05 -82.2676 1.97676 2.15334 -18.4491 -0 -0 22.3339 -3.58125e-05 11.2909 36.425 6.7607 6.88237e-06 -61.1855 
53.837 99.196 5.0623 26.0207 -82.5233 -4.49098 0 -0 0 -1.6577 -6.25336 -6.34689 15.8977 -5.8313 1.48595e-05 48.93 22.1901 -15.8348 -0 60.894 -0 -22.9403 12.8723 -2.62251 -16.5408 6.94911 2.94996e-05 -42.8225 -23.287 -9.47202 0 -68.6038 0 25.9903 -2.10507 -0.485902 -2.99795 -9.25034 4.79956 -1.92251 -17.6723 -15.7758 -0 -0 19.2754 -3.98328e-06 3.08866 38.5851 1.92752 3.66326e-05 -81.5452 2.11912 1.4768 -18.9525 -0 -0 22.0829 0.000105623 12.1546 36.278 7.26258 2.05509e-05 -59.297 
53.242 100.42 4.9765 26.2569 -82.7111 -4.4222 0 -0 0 -1.63444 -6.20859 -6.56926 15.7823 -5.92747 1.76825e-05 47.5584 22.7183 -16.7142 -5.00191e-07 63.3696 -8.10378e-07 -23.3162 12.8196 -2.65561 -16.3684 7.15513 1.11492e-05 -41.9256 -23.238 -10.8123 0 -72.2176 0 26.0999 -1.61885 -0.375208 -2.61183 -9.02655 4.51287 -1.76395 -17.624 -16.6143 -0 -0 18.94 1.01099e-05 3.11572 37.6119 1.90273 -1.17915e-06 -81.3244 2.20349 0.834703 -19.6403 -0 -0 22.0967 -0.000220898 12.9617 35.5232 7.61754 -4.18133e-05 -57.8023 
52.689 101.57 4.8981 26.5279 -82.8904 -4.37111 0 -0 0 -1.57504 -6.17456 -6.67832 15.621 -6.00875 4.26472e-06 46.1675 23.3116 -17.8202 -0 65.8102 -0 -23.6908 12.7793 -2.69104 -16.2307 7.31847 -3.49967e-05 -40.9482 -23.1813 -12.3367 7.53801e-07 -75.7667 -9.68899e-07 26.3528 -1.27344 -0.298107 -2.28096 -8.83339 4.0597 -1.57537 -17.6078 -17.6258 -0 -0 18.8424 1.55849e-06 2.90158 36.1195 1.71135 3.49711e-05 -81.0461 2.23852 0.298216 -20.4894 -0 -0 22.3307 -0.000149831 13.5881 34.3334 7.7632 -4.04623e-05 -56.6549 
52.165 102.64 4.8301 26.9161 -83.0632 -4.46215 0 -0 0 -1.50079 -6.15002 -6.62932 15.4039 -6.0814 -1.35282e-05 44.7756 23.9803 -19.1465 -6.43942e-07 68.1868 -9.51346e-07 -24.0617 12.7459 -2.7271 -16.101 7.45575 4.07379e-07 -39.9317 -23.1448 -14.0478 0 -79.1936 0 26.7123 -1.1007 -0.2613 -2.00222 -8.65973 3.47622 -1.37568 -17.6618 -18.7334 -0 -0 18.9003 -1.2724e-05 2.51915 34.347 1.4219 -5.21128e-06 -81.0277 2.2094 -0.111512 -21.4137 -0 -0 22.6808 -1.30023e-05 13.9906 32.9109 7.70948 -3.31261e-05 -55.9149 
51.666 103.64 4.7687 27.3321 -83.2232 -4.60203 0 -0 0 -1.40472 -6.13425 -6.44509 15.1331 -6.14701 9.87265e-06 43.383 24.7082 -20.6847 -0 70.4666 -0 -24.4226 12.7125 -2.76193 -15.978 7.5599 -3.3096e-05 -38.8749 -23.105 -15.9143 0 -82.4808 0 27.2075 -1.10979 -0.268598 -1.7764 -8.49567 2.81182 -1.14864 -17.7978 -19.9217 -0 -0 19.0676 3.19167e-06 2.04073 32.4624 1.0957 7.69482e-07 -80.9596 2.11952 -0.359885 -22.4051 -0 -0 23.0959 0.000215999 14.1211 31.4097 7.4691 4.77274e-06 -55.4355 
